<svg width="19" height="20" viewBox="0 0 19 20" fill="none" xmlns="http://www.w3.org/2000/svg">
<path d="M18.9517 5.58714C18.9072 4.5774 18.7439 3.88321 18.51 3.28169C18.2687 2.64319 17.8975 2.07154 17.4111 1.59632C16.9359 1.11371 16.3604 0.738706 15.7293 0.501172C15.1243 0.267263 14.4338 0.103976 13.424 0.0594561C12.4068 0.0111661 12.0838 0 9.5037 0C6.92359 0 6.60064 0.0111661 5.58714 0.0556857C4.5774 0.100205 3.88321 0.263637 3.28183 0.497401C2.64319 0.738706 2.07154 1.10994 1.59632 1.59632C1.11371 2.07154 0.738851 2.64696 0.501172 3.27806C0.267263 3.88321 0.103976 4.57363 0.0594561 5.58337C0.0111661 6.60065 0 6.92359 0 9.5037C0 12.0838 0.0111661 12.4068 0.0556857 13.4203C0.100205 14.43 0.263637 15.1242 0.497546 15.7257C0.738851 16.3642 1.11371 16.9359 1.59632 17.4111C2.07154 17.8937 2.64696 18.2687 3.27806 18.5062C3.88321 18.7401 4.57363 18.9034 5.58351 18.9479C6.59687 18.9926 6.91997 19.0036 9.50007 19.0036C12.0802 19.0036 12.4031 18.9926 13.4166 18.9479C14.4264 18.9034 15.1206 18.7401 15.7219 18.5062C16.9991 18.0125 18.0088 17.0027 18.5026 15.7257C18.7364 15.1206 18.8998 14.43 18.9443 13.4203C18.9888 12.4068 19 12.0838 19 9.5037C19 6.92359 18.9962 6.60065 18.9517 5.58714ZM17.2404 13.346C17.1995 14.2741 17.0436 14.7753 16.9137 15.1094C16.5943 15.9373 15.9373 16.5944 15.1094 16.9137C14.7753 17.0436 14.2705 17.1995 13.346 17.2402C12.3437 17.2849 12.0431 17.2959 9.50747 17.2959C6.97188 17.2959 6.6675 17.2849 5.66878 17.2402C4.74068 17.1995 4.23951 17.0436 3.9054 16.9137C3.49341 16.7614 3.1184 16.5201 2.81401 16.2045C2.49846 15.8964 2.25716 15.5252 2.10489 15.1132C1.97496 14.7791 1.81907 14.2741 1.77832 13.3498C1.73365 12.3474 1.72263 12.0467 1.72263 9.5111C1.72263 6.97551 1.73365 6.67112 1.77832 5.67255C1.81907 4.74445 1.97496 4.24328 2.10489 3.90917C2.25716 3.49704 2.49846 3.12217 2.81779 2.81764C3.1258 2.50209 3.49704 2.26078 3.90917 2.10866C4.24328 1.97873 4.74822 1.82284 5.67255 1.78194C6.67489 1.73742 6.97565 1.72626 9.51109 1.72626C12.0505 1.72626 12.3511 1.73742 13.3498 1.78194C14.2779 1.82284 14.7791 1.97873 15.1132 2.10866C15.5252 2.26078 15.9002 2.50209 16.2045 2.81764C16.5201 3.1258 16.7614 3.49704 16.9137 3.90917C17.0436 4.24328 17.1995 4.74808 17.2404 5.67255C17.2849 6.67489 17.2961 6.97551 17.2961 9.5111C17.2961 12.0467 17.2849 12.3437 17.2404 13.346Z" fill="white"/>
<path d="M9.50361 4.62207C6.80851 4.62207 4.62183 6.80861 4.62183 9.50385C4.62183 12.1991 6.80851 14.3856 9.50361 14.3856C12.1989 14.3856 14.3854 12.1991 14.3854 9.50385C14.3854 6.80861 12.1989 4.62207 9.50361 4.62207ZM9.50361 12.6705C7.75516 12.6705 6.33692 11.2524 6.33692 9.50385C6.33692 7.75526 7.75516 6.33716 9.50361 6.33716C11.2522 6.33716 12.6703 7.75526 12.6703 9.50385C12.6703 11.2524 11.2522 12.6705 9.50361 12.6705Z" fill="white"/>
<path d="M15.7183 4.42873C15.7183 5.0581 15.208 5.56841 14.5785 5.56841C13.9492 5.56841 13.4388 5.0581 13.4388 4.42873C13.4388 3.79923 13.9492 3.28906 14.5785 3.28906C15.208 3.28906 15.7183 3.79923 15.7183 4.42873Z" fill="white"/>
</svg>
