<svg width="23" height="21" viewBox="0 0 23 21" fill="none" xmlns="http://www.w3.org/2000/svg">
<path d="M22.7784 0.707031V12.643C22.7784 15.5949 21.8616 17.6668 20.0282 18.8585C18.1947 20.032 15.3344 20.6187 11.4474 20.6187C10.4024 20.6187 9.46727 20.582 8.64221 20.5087C7.83547 20.4537 6.97373 20.3345 6.05699 20.1512C5.14025 19.9678 4.35185 19.6928 3.69179 19.3261C3.05007 18.9411 2.45419 18.4643 1.90414 17.896C1.3541 17.3276 0.932394 16.6034 0.639036 15.7233C0.364013 14.8249 0.226501 13.7981 0.226501 12.643V0.707031H6.90956V12.148C6.90956 13.5414 7.32209 14.614 8.14716 15.3658C8.97223 16.0992 10.0815 16.4658 11.4749 16.4658C12.8867 16.4658 14.0052 16.1267 14.8302 15.4483C15.6736 14.7515 16.0953 13.7248 16.0953 12.368V0.707031H22.7784Z" fill="white"/>
</svg>
