<svg width="20" height="25" viewBox="0 0 20 25" fill="none" xmlns="http://www.w3.org/2000/svg">
<path d="M18.8283 8.02393V17.89C18.8283 20.3301 18.0705 22.0426 16.555 23.0277C15.0395 23.9976 12.6752 24.4826 9.46232 24.4826C8.59846 24.4826 7.82554 24.4523 7.14355 24.3917C6.47672 24.3462 5.76442 24.2477 5.00665 24.0962C4.24888 23.9446 3.5972 23.7173 3.05161 23.4142C2.52118 23.0959 2.02863 22.7019 1.57397 22.232C1.11931 21.7622 0.770736 21.1636 0.528251 20.4361C0.300921 19.6935 0.187256 18.8448 0.187256 17.89V8.02393H5.71137V17.4809C5.71137 18.6327 6.05237 19.5192 6.73436 20.1406C7.41635 20.7468 8.33325 21.0499 9.48505 21.0499C10.652 21.0499 11.5765 20.7696 12.2585 20.2088C12.9556 19.6329 13.3042 18.7842 13.3042 17.6627V8.02393H18.8283Z" fill="white"/>
<circle cx="3.08174" cy="3.08174" r="3.08174" fill="white"/>
<circle cx="15.9609" cy="3.08174" r="3.08174" fill="white"/>
</svg>
