<svg width="25" height="26" viewBox="0 0 25 26" fill="none" xmlns="http://www.w3.org/2000/svg">
<path d="M24.9365 7.5031C24.8779 6.1745 24.663 5.2611 24.3553 4.46962C24.0378 3.62949 23.5493 2.87732 22.9093 2.25204C22.284 1.61703 21.5269 1.12359 20.6965 0.811048C19.9004 0.503273 18.9918 0.288421 17.6632 0.229843C16.3247 0.166304 15.8997 0.151611 12.5049 0.151611C9.10999 0.151611 8.68506 0.166304 7.35149 0.224882C6.02289 0.28346 5.10949 0.498502 4.3182 0.806087C3.47788 1.12359 2.72571 1.61206 2.10043 2.25204C1.46541 2.87732 0.972172 3.63445 0.659436 4.46485C0.351661 5.2611 0.13681 6.16954 0.0782317 7.49814C0.0146923 8.83667 0 9.2616 0 12.6565C0 16.0514 0.0146923 16.4763 0.0732707 17.8098C0.131849 19.1385 0.346891 20.0519 0.654666 20.8433C0.972172 21.6835 1.46541 22.4356 2.10043 23.0609C2.72571 23.6959 3.48284 24.1894 4.31324 24.5019C5.10949 24.8097 6.01793 25.0245 7.34672 25.0831C8.6801 25.1419 9.10522 25.1564 12.5001 25.1564C15.895 25.1564 16.3199 25.1419 17.6535 25.0831C18.9821 25.0245 19.8955 24.8097 20.6868 24.5019C22.3672 23.8522 23.6958 22.5236 24.3455 20.8433C24.6531 20.0471 24.8682 19.1385 24.9267 17.8098C24.9853 16.4763 25 16.0514 25 12.6565C25 9.2616 24.995 8.83667 24.9365 7.5031ZM22.6847 17.7122C22.6309 18.9333 22.4258 19.5928 22.2548 20.0324C21.8347 21.1217 20.9701 21.9863 19.8808 22.4064C19.4412 22.5774 18.777 22.7825 17.5605 22.8361C16.2417 22.8949 15.8461 22.9094 12.5098 22.9094C9.17353 22.9094 8.77302 22.8949 7.45892 22.8361C6.23774 22.7825 5.5783 22.5774 5.13868 22.4064C4.59659 22.2061 4.10316 21.8886 3.70265 21.4734C3.28745 21.0679 2.96994 20.5794 2.76959 20.0374C2.59863 19.5977 2.39351 18.9333 2.33989 17.7171C2.28112 16.3982 2.26662 16.0025 2.26662 12.6662C2.26662 9.32991 2.28112 8.9294 2.33989 7.61549C2.39351 6.39431 2.59863 5.73488 2.76959 5.29525C2.96994 4.75297 3.28745 4.25973 3.70761 3.85903C4.11289 3.44383 4.60136 3.12633 5.14364 2.92617C5.58327 2.7552 6.24766 2.55008 7.46388 2.49627C8.78275 2.4377 9.17849 2.423 12.5146 2.423C15.8559 2.423 16.2514 2.4377 17.5655 2.49627C18.7867 2.55008 19.4461 2.7552 19.8857 2.92617C20.4278 3.12633 20.9213 3.44383 21.3218 3.85903C21.737 4.2645 22.0545 4.75297 22.2548 5.29525C22.4258 5.73488 22.6309 6.39908 22.6847 7.61549C22.7433 8.93436 22.758 9.32991 22.758 12.6662C22.758 16.0025 22.7433 16.3933 22.6847 17.7122Z" fill="#131313"/>
<path d="M12.5049 6.23309C8.95875 6.23309 6.08154 9.11011 6.08154 12.6565C6.08154 16.2029 8.95875 19.0799 12.5049 19.0799C16.0513 19.0799 18.9283 16.2029 18.9283 12.6565C18.9283 9.11011 16.0513 6.23309 12.5049 6.23309ZM12.5049 16.8232C10.2044 16.8232 8.33824 14.9573 8.33824 12.6565C8.33824 10.3557 10.2044 8.48979 12.5049 8.48979C14.8057 8.48979 16.6716 10.3557 16.6716 12.6565C16.6716 14.9573 14.8057 16.8232 12.5049 16.8232Z" fill="#131313"/>
<path d="M20.6822 5.97918C20.6822 6.80729 20.0107 7.47875 19.1824 7.47875C18.3543 7.47875 17.6829 6.80729 17.6829 5.97918C17.6829 5.15088 18.3543 4.47961 19.1824 4.47961C20.0107 4.47961 20.6822 5.15088 20.6822 5.97918Z" fill="#131313"/>
</svg>
