<svg width="134" height="24" viewBox="0 0 134 24" fill="none" xmlns="http://www.w3.org/2000/svg">
<path d="M18.1773 7.67725V17.0486C18.1773 19.3663 17.4554 20.9929 16.0116 21.9286C14.5678 22.8499 12.3155 23.3106 9.25467 23.3106C8.43171 23.3106 7.69538 23.2818 7.04568 23.2242C6.41041 23.181 5.73183 23.0875 5.00994 22.9435C4.28805 22.7995 3.66722 22.5836 3.14746 22.2957C2.64213 21.9934 2.1729 21.6191 1.73977 21.1729C1.30663 20.7266 0.974559 20.158 0.743553 19.467C0.526985 18.7617 0.418701 17.9555 0.418701 17.0486V7.67725H5.6813V16.6599C5.6813 17.754 6.00615 18.5961 6.65586 19.1863C7.30556 19.7621 8.17905 20.05 9.27633 20.05C10.388 20.05 11.2687 19.7837 11.9185 19.2511C12.5826 18.7041 12.9147 17.8979 12.9147 16.8327V7.67725H18.1773Z" fill="white"/>
<path d="M43.5522 22.7923H38.2463V17.7612C38.2463 15.717 38.2752 14.1551 38.333 13.0755H38.2896L34.1532 22.7923H30.19L25.9453 13.1187H25.902C25.9453 13.7233 25.9669 15.2924 25.9669 17.826V22.7923H20.661V7.67725H27.7645L32.0958 17.3941H32.1391L36.4921 7.67725H43.5522V22.7923Z" fill="white"/>
<path d="M64.1209 22.7923H58.4252L57.7322 20.7842H51.0186L50.2606 22.7923H44.6298L51.2568 7.67725H57.3857L64.1209 22.7923ZM56.3028 17.1782L54.2888 11.8231L52.383 17.1782H56.3028Z" fill="white"/>
<path d="M82.505 12.4925C82.505 13.7305 82.1369 14.7598 81.4005 15.5803C80.6642 16.4008 79.7691 16.9191 78.7151 17.135L82.3967 22.7923H76.4628L73.2143 17.3077H70.5721V22.7923H65.2013V7.67725H77.1125C78.7006 7.67725 79.9928 8.1235 80.9891 9.01601C81.9997 9.89413 82.505 11.053 82.505 12.4925ZM76.9176 12.4925C76.9176 12.0318 76.7804 11.6792 76.5061 11.4344C76.2462 11.1753 75.8997 11.0458 75.4666 11.0458H70.5721V13.9176H75.4666C76.4339 13.9176 76.9176 13.4426 76.9176 12.4925Z" fill="white"/>
<path d="M101.594 22.7923H95.8112L92.2595 16.444L90.0506 18.7113V22.7923H84.6797V7.67725H90.0506V13.1835L94.9883 7.67725H101.247L96.0278 13.1403L101.594 22.7923Z" fill="white"/>
<path d="M108.082 22.7923H103.101V19.1215H108.082V22.7923Z" fill="white"/>
<path d="M116.043 22.7923H110.672V7.67725H116.043V22.7923Z" fill="white"/>
<path d="M134 11.3481H128.521V22.7923H123.15V11.3481H117.671V7.67725H134V11.3481Z" fill="white"/>
<circle cx="2.93125" cy="2.93213" r="2.86146" fill="#F2C94B" stroke="black" stroke-width="0.139583"/>
<circle cx="15.6334" cy="2.93125" r="2.86146" fill="#F2C94B" stroke="black" stroke-width="0.139583"/>
<rect x="110.07" y="0.0697917" width="5.86042" height="5.86042" fill="#6CA3E0" stroke="black" stroke-width="0.139583"/>
</svg>
