<svg width="429" height="500" viewBox="0 0 429 500" fill="none" xmlns="http://www.w3.org/2000/svg">
<path opacity="0.21" d="M1.40002 285.512L0.690333 285.512L0.690333 285.806L0.898189 286.014L1.40002 285.512ZM1.40003 221.612L1.90183 221.11L0.690339 219.898L0.690339 221.612L1.40003 221.612ZM190.97 411.182L190.468 411.684L191.68 412.895L191.68 411.182L190.97 411.182ZM190.97 1.51169L190.97 0.802039L190.26 0.802039L190.26 1.51169L190.97 1.51169ZM237.83 1.5117L238.54 1.5117L238.54 0.802043L237.83 0.802043L237.83 1.5117ZM237.83 411.182L237.12 411.182L237.12 412.895L238.332 411.684L237.83 411.182ZM427.4 221.612L428.11 221.612L428.11 219.898L426.898 221.11L427.4 221.612ZM427.4 285.512L427.902 286.014L428.11 285.806L428.11 285.512L427.4 285.512ZM214.4 498.512L213.898 499.014L214.4 499.515L214.902 499.014L214.4 498.512ZM2.10968 285.512L2.10968 221.612L0.690339 221.612L0.690333 285.512L2.10968 285.512ZM0.898194 222.113L190.468 411.684L191.472 410.68L1.90183 221.11L0.898194 222.113ZM191.68 411.182L191.68 1.51169L190.26 1.51169L190.26 411.182L191.68 411.182ZM190.97 2.22135L237.83 2.22135L237.83 0.802043L190.97 0.802039L190.97 2.22135ZM237.12 1.5117L237.12 411.182L238.54 411.182L238.54 1.5117L237.12 1.5117ZM238.332 411.684L427.902 222.114L426.898 221.11L237.328 410.68L238.332 411.684ZM426.69 221.612L426.69 285.512L428.11 285.512L428.11 221.612L426.69 221.612ZM426.898 285.01L213.898 498.01L214.902 499.014L427.902 286.014L426.898 285.01ZM214.902 498.01L1.90182 285.01L0.898189 286.014L213.898 499.014L214.902 498.01Z" fill="#141414"/>
</svg>
